# xmcd
#
# Track frame offsets: 
#        183
#        12395
#        38695
#        50233
#        65670
#        79533
#        93008
#        103020
#        124895
#        135358
#        153708
#        185333
#        205358
#        216358
#        230483
#        243608
#        264558
#        277758
#        290320
#        303195
#
# Disc length: 4296 seconds
#
# Revision: 1
# Processed by: cddbd v1.4PL0 Copyright (c) Steve Scherf et al.
# Submitted via: ExactAudioCopy v0.95a3
#
DISCID=1d10c614
DTITLE=Various Artist - The Blues Revival CD1
DYEAR=1900
DGENRE=Blues
TTITLE0=John Lee Hooker - I´m In The Mood
TTITLE1="Big Mama" Thornton - Little Red Rooster
TTITLE2=Muddy Waters - Just A Dream
TTITLE3=Little Milton - Blind Man
TTITLE4=Howlin' Wolf - Smokestack Lightning
TTITLE5=Mitty Collier - Come Back Baby
TTITLE6=Sonny Boy Williamson - To Close Together
TTITLE7=Elmore James - Something Inside Of Me
TTITLE8=Arthur "Big Boy" Crudup - That´s All Right
TTITLE9=Muddy Waters - Long Distance Call
TTITLE10=Clarence "Gatemouth" Brown - The Drifter
TTITLE11=Lowel Fulson - I Want To Know
TTITLE12=John Lee Hooker - No Shoes
TTITLE13=Little Walter - Blues With A Feeling
TTITLE14=Elmore James - Dust My Broom
TTITLE15=Jay McShann - Confessin´The Blues
TTITLE16=Howlin' Wolf - I´m Leavin´ You
TTITLE17=Etta James - Spoonful
TTITLE18=Sonny Boy Williamson - Like A Wolf
TTITLE19=Eddie "Cleanhead" Vinson - Cleanhead Blues
EXTD=
EXTT0=
EXTT1=
EXTT2=
EXTT3=
EXTT4=
EXTT5=
EXTT6=
EXTT7=
EXTT8=
EXTT9=
EXTT10=
EXTT11=
EXTT12=
EXTT13=
EXTT14=
EXTT15=
EXTT16=
EXTT17=
EXTT18=
EXTT19=
PLAYORDER=
